<?xml version="1.0" encoding="UTF-8" standalone="no"?><!DOCTYPE svg PUBLIC "-//W3C//DTD SVG 1.1//EN" "http://www.w3.org/Graphics/SVG/1.1/DTD/svg11.dtd"><svg width="100%" height="100%" viewBox="0 0 1080 1080" version="1.1" xmlns="http://www.w3.org/2000/svg" xmlns:xlink="http://www.w3.org/1999/xlink" xml:space="preserve" xmlns:serif="http://www.serif.com/" style="fill-rule:evenodd;clip-rule:evenodd;stroke-linejoin:round;stroke-miterlimit:2;"><rect id="ロゴベース" x="0" y="0" width="1080" height="1080" style="fill:none;"/><clipPath id="_clip1"><rect x="0" y="0" width="1080" height="1080"/></clipPath><g clip-path="url(#_clip1)"><path d="M1075.83,268.957c-0,-148.441 -120.516,-268.957 -268.957,-268.957l-537.914,-0c-148.441,-0 -268.957,120.516 -268.957,268.957l0,537.914c0,148.441 120.516,268.957 268.957,268.957l537.914,-0c148.441,-0 268.957,-120.516 268.957,-268.957l-0,-537.914Z" style="fill:#fff;"/><path d="M1075.83,268.957c-0,-148.441 -120.516,-268.957 -268.957,-268.957l-537.914,-0c-148.441,-0 -268.957,120.516 -268.957,268.957l0,537.914c0,148.441 120.516,268.957 268.957,268.957l537.914,-0c148.441,-0 268.957,-120.516 268.957,-268.957l-0,-537.914Zm-41.667,-0l-0,537.914c-0,125.445 -101.845,227.29 -227.29,227.29l-537.914,-0c-125.445,-0 -227.29,-101.845 -227.29,-227.29l-0,-537.914c-0,-125.445 101.845,-227.29 227.29,-227.29l537.914,-0c125.445,-0 227.29,101.845 227.29,227.29Z"/><g><g><path d="M298.145,547.96l-21.671,-411.921l189.053,0c36.651,0 68.346,7.377 95.087,19.868c26.74,12.491 47.403,30.35 61.989,53.576c14.585,23.226 21.878,50.649 21.878,82.267c0,31.619 -7.293,58.944 -21.878,81.975c-14.586,23.031 -35.249,40.889 -61.989,53.576c-26.741,12.686 -58.436,19.03 -95.087,19.03l-115.564,-0l69.466,-59.139l10.702,160.971l-131.986,-0.203Zm121.284,-145.544l-69.466,-62.652l107.149,-0c18.325,-0 31.882,-4.294 40.671,-12.882c8.789,-8.588 13.183,-20.298 13.183,-35.132c0,-14.833 -4.394,-26.544 -13.183,-35.132c-8.789,-8.587 -22.346,-12.881 -40.671,-12.881l-107.149,-0l58.904,-62.652l10.562,221.331Z" style="fill-rule:nonzero;"/><path d="M789.777,548.163c-31.416,0 -60.493,-4.973 -87.234,-14.919c-26.74,-9.947 -49.928,-24.116 -69.562,-42.508c-19.635,-18.391 -34.875,-40.161 -45.72,-65.309c-10.846,-25.148 -16.269,-52.923 -16.269,-83.326c-0,-30.402 5.423,-58.177 16.269,-83.325c10.845,-25.148 26.085,-46.918 45.72,-65.309c19.634,-18.392 42.822,-32.561 69.562,-42.508c26.741,-9.946 55.818,-14.92 87.234,-14.92c38.521,0 72.647,6.757 102.38,20.269c29.732,13.512 54.322,33.03 73.769,58.553l-83.587,74.88c-11.593,-14.638 -24.403,-25.992 -38.427,-34.062c-14.025,-8.07 -29.826,-12.104 -47.404,-12.104c-13.837,-0 -26.366,2.252 -37.586,6.756c-11.219,4.504 -20.85,11.072 -28.89,19.705c-8.041,8.633 -14.306,19.049 -18.794,31.247c-4.487,12.199 -6.731,25.805 -6.731,40.818c-0,15.014 2.244,28.62 6.731,40.819c4.488,12.198 10.753,22.614 18.794,31.247c8.04,8.633 17.671,15.201 28.89,19.705c11.22,4.504 23.749,6.756 37.586,6.756c17.578,0 33.379,-4.035 47.404,-12.104c14.024,-8.07 26.834,-19.424 38.427,-34.063l83.587,74.881c-19.447,25.148 -44.037,44.572 -73.769,58.271c-29.733,13.7 -63.859,20.55 -102.38,20.55Z" style="fill-rule:nonzero;"/></g><g id="desktop_x5F_computer_1_"><clipPath id="_clip2"><rect id="icon_11_" x="114.074" y="135.311" width="226.784" height="412.853"/></clipPath><g clip-path="url(#_clip2)"><path d="M180.716,427.942c-14.848,0 -26.912,12.115 -26.912,27.027c-0,14.911 12.064,27.026 26.912,27.026c14.848,0 26.913,-12.115 26.913,-27.026c-0,-14.912 -11.601,-27.027 -26.913,-27.027Zm-66.642,120.221l226.899,0l0,-412.124l-226.899,0l-0,412.124Zm66.642,-54.985c-20.88,0 -37.584,-16.775 -37.584,-37.743c-0,-20.969 16.704,-37.744 37.584,-37.744c20.88,-0 37.585,16.775 37.585,37.744c-0,20.968 -16.705,37.743 -37.585,37.743Z" style="fill-rule:nonzero;"/><clipPath id="_clip3"><path d="M180.716,427.942c-14.848,0 -26.912,12.115 -26.912,27.027c-0,14.911 12.064,27.026 26.912,27.026c14.848,0 26.913,-12.115 26.913,-27.026c-0,-14.912 -11.601,-27.027 -26.913,-27.027Zm-66.642,120.221l226.899,0l0,-412.124l-226.899,0l-0,412.124Zm66.642,-54.985c-20.88,0 -37.584,-16.775 -37.584,-37.743c-0,-20.969 16.704,-37.744 37.584,-37.744c20.88,-0 37.585,16.775 37.585,37.744c-0,20.968 -16.705,37.743 -37.585,37.743Z" clip-rule="nonzero"/></clipPath><g clip-path="url(#_clip3)"><path d="M325.892,189.267c0,-5.326 -4.323,-9.649 -9.649,-9.649l-159.303,-0c-5.326,-0 -9.649,4.323 -9.649,9.649l-0,19.298c-0,5.326 4.323,9.649 9.649,9.649l159.303,0c5.326,0 9.649,-4.323 9.649,-9.649l0,-19.298Z" style="fill:#fff;"/><path d="M325.892,263.844c0,-5.326 -4.323,-9.649 -9.649,-9.649l-159.303,-0c-5.326,-0 -9.649,4.323 -9.649,9.649l-0,19.298c-0,5.326 4.323,9.649 9.649,9.649l159.303,0c5.326,0 9.649,-4.323 9.649,-9.649l0,-19.298Z" style="fill:#fff;"/><path d="M213.955,387.31c0,-1.988 -1.614,-3.602 -3.602,-3.602l-59.461,0c-1.987,0 -3.601,1.614 -3.601,3.602l-0,7.203c-0,1.988 1.614,3.602 3.601,3.602l59.461,-0c1.988,-0 3.602,-1.614 3.602,-3.602l0,-7.203Z" style="fill:#fff;"/></g></g></g><g transform="matrix(1,0,0,0.805548,0,-223.507)"><text x="76.637px" y="1438.78px" style="font-family:'Montserrat-Black', 'Montserrat';font-weight:900;font-size:656.787px;">D<tspan x="542.956px " y="1438.78px ">S</tspan></text></g></g></g></svg>