<?xml version="1.0" encoding="UTF-8" standalone="no"?><!DOCTYPE svg PUBLIC "-//W3C//DTD SVG 1.1//EN" "http://www.w3.org/Graphics/SVG/1.1/DTD/svg11.dtd"><svg width="100%" height="100%" viewBox="0 0 3240 677" version="1.1" xmlns="http://www.w3.org/2000/svg" xmlns:xlink="http://www.w3.org/1999/xlink" xml:space="preserve" xmlns:serif="http://www.serif.com/" style="fill-rule:evenodd;clip-rule:evenodd;stroke-miterlimit:10;"><rect id="タイトルベース（加工）２" x="0" y="0" width="3240" height="676.632" style="fill:none;"/><clipPath id="_clip1"><rect x="0" y="0" width="3240" height="676.632"/></clipPath><g clip-path="url(#_clip1)"><clipPath id="_clip2"><rect id="memory-computer-svgrepo-com.svg" x="2548.34" y="29.851" width="199.092" height="199.092"/></clipPath><g clip-path="url(#_clip2)"><path d="M2568.34,58.181l0,158.65" style="fill:none;fill-rule:nonzero;stroke:#808080;stroke-width:15.84px;"/><path d="M2734.99,66.102l0,119.041l-55.579,-0l-0,-7.964l-47.616,-0l-7.881,7.964l-55.58,-0l0,-119.041l166.656,0Z" style="fill:none;fill-rule:nonzero;stroke:#808080;stroke-width:15.84px;"/><rect x="2568.34" y="97.874" width="39.652" height="55.58" style="fill:none;stroke:#808080;stroke-width:15.84px;"/><circle cx="2675.51" cy="125.581" r="27.79" style="fill:none;stroke:#808080;stroke-width:15.84px;"/></g><clipPath id="_clip3"><rect id="memory-ram-svgrepo-com.svg" x="1980.92" y="163.257" width="225.619" height="185.334"/></clipPath><g clip-path="url(#_clip3)"><path d="M2183.51,248.588c0.235,3.948 4.124,7.143 8.931,7.336l-0,51.584l-197.417,0l0,-51.584c3.922,-1.001 6.613,-4.002 6.613,-7.375c-0,-3.373 -2.691,-6.374 -6.613,-7.375l0,-36.835l197.417,0l-0,36.835c-4.84,0.196 -8.743,3.436 -8.931,7.414Z" style="fill:none;fill-rule:nonzero;stroke:#808080;stroke-width:11.61px;"/><path d="M2165.27,270.414l-0,-44.248l-31.205,-0l0,44.248l31.205,0Z" style="fill:none;stroke:#808080;stroke-width:9.06px;"/><path d="M2109.33,270.414l-0,-44.248l-31.205,-0l0,44.248l31.205,0Z" style="fill:none;stroke:#808080;stroke-width:9.06px;"/><path d="M2053.4,270.414l-0,-44.248l-31.205,-0l0,44.248l31.205,0Z" style="fill:none;stroke:#808080;stroke-width:9.06px;"/><path d="M2021.91,285.423l-0,22.085" style="fill:none;fill-rule:nonzero;stroke:#808080;stroke-width:16.43px;"/><path d="M2057.82,285.423l-0,22.085" style="fill:none;fill-rule:nonzero;stroke:#808080;stroke-width:16.43px;"/><path d="M2093.73,285.423l-0,22.085" style="fill:none;fill-rule:nonzero;stroke:#808080;stroke-width:16.43px;"/><path d="M2129.64,285.423l-0,22.085" style="fill:none;fill-rule:nonzero;stroke:#808080;stroke-width:16.43px;"/><path d="M2165.55,285.423l-0,22.085" style="fill:none;fill-rule:nonzero;stroke:#808080;stroke-width:16.43px;"/></g><g><path d="M2272.81,532.126c1.589,-4.79 4.669,-8.901 8.686,-11.788c-4.191,-9.714 -6.315,-21.032 -5.852,-31.985c0.061,-1.445 -1.214,-3.815 -4.438,-2.422c-6.386,2.759 -11.95,6.942 -17,11.591c-4.823,4.443 -5.913,11.524 -2.257,15.928c6.057,7.291 13.03,14.036 20.861,18.676Z" style="fill:#808080;fill-rule:nonzero;"/><path d="M2305.08,518.024c6.32,-8.49 15.056,-15.987 24.775,-21.06c1.286,-0.671 2.7,-2.96 -0.123,-5.06c-5.58,-4.15 -11.987,-6.878 -18.533,-8.924c-6.263,-1.96 -12.938,0.637 -14.923,6.011c-3.291,8.886 -5.641,18.301 -5.743,27.403c4.941,-1.021 10.037,-0.406 14.547,1.63Z" style="fill:#808080;fill-rule:nonzero;"/><path d="M2339.61,515.144c-9.344,1.597 -18.672,4.266 -26.606,8.727c3.358,3.771 5.373,8.494 5.867,13.418c10.511,1.226 21.371,5.047 30.622,10.925c1.224,0.776 3.913,0.859 4.319,-2.638c0.808,-6.906 -0.03,-13.817 -1.532,-20.512c-1.44,-6.403 -7.024,-10.887 -12.67,-9.92Z" style="fill:#808080;fill-rule:nonzero;"/><path d="M2317.78,547.077c-1.589,4.787 -4.669,8.899 -8.685,11.786c4.191,9.714 6.314,21.032 5.851,31.985c-0.061,1.445 1.214,3.815 4.443,2.421c6.382,-2.758 11.951,-6.942 16.995,-11.59c4.823,-4.443 5.914,-11.524 2.257,-15.928c-6.051,-7.289 -13.03,-14.035 -20.861,-18.674Z" style="fill:#808080;fill-rule:nonzero;"/><path d="M2285.51,561.18c-6.314,8.487 -15.051,15.984 -24.77,21.06c-1.285,0.668 -2.699,2.957 0.123,5.057c5.58,4.15 11.987,6.878 18.533,8.925c6.263,1.959 12.938,-0.638 14.923,-6.012c3.291,-8.885 5.641,-18.298 5.744,-27.403c-4.942,1.021 -10.043,0.407 -14.553,-1.627Z" style="fill:#808080;fill-rule:nonzero;"/><path d="M2271.72,541.912c-10.511,-1.227 -21.371,-5.047 -30.622,-10.925c-1.224,-0.776 -3.913,-0.859 -4.32,2.638c-0.807,6.906 0.031,13.817 1.538,20.512c1.435,6.402 7.019,10.886 12.666,9.92c9.343,-1.597 18.671,-4.266 26.605,-8.727c-3.358,-3.771 -5.373,-8.494 -5.867,-13.418Z" style="fill:#808080;fill-rule:nonzero;"/><path d="M2295.29,522.446c-9.472,0 -17.15,7.683 -17.15,17.154c0,9.475 7.678,17.155 17.15,17.155c9.477,0 17.159,-7.68 17.159,-17.155c0.001,-9.471 -7.682,-17.154 -17.159,-17.154Z" style="fill:#808080;fill-rule:nonzero;"/><path d="M2354,467.005l-117.407,0c-7.678,0 -13.895,6.22 -13.895,13.892l0,117.407c0,7.672 6.217,13.894 13.895,13.894l117.407,0c7.672,0 13.889,-6.222 13.889,-13.894l-0,-117.407c-0,-7.672 -6.217,-13.892 -13.889,-13.892Zm-0,8.991c2.705,0 4.9,2.196 4.9,4.901c0,2.708 -2.195,4.901 -4.9,4.901c-2.71,-0 -4.906,-2.194 -4.906,-4.901c-0,-2.705 2.196,-4.901 4.906,-4.901Zm-117.407,0c2.704,0 4.9,2.196 4.9,4.901c0,2.71 -2.196,4.901 -4.9,4.901c-2.71,-0 -4.906,-2.191 -4.906,-4.901c0,-2.705 2.196,-4.901 4.906,-4.901Zm-0.005,127.208c-2.705,0 -4.901,-2.193 -4.901,-4.9c0,-2.707 2.196,-4.901 4.901,-4.901c2.709,0 4.905,2.194 4.905,4.901c0,2.707 -2.196,4.9 -4.905,4.9Zm117.412,0c-2.71,0 -4.906,-2.193 -4.906,-4.9c-0,-2.705 2.196,-4.901 4.906,-4.901c2.705,0 4.9,2.196 4.9,4.901c0,2.707 -2.195,4.9 -4.9,4.9Zm-58.709,2.564c-36.541,0 -66.165,-29.625 -66.165,-66.168c0,-36.54 29.625,-66.165 66.165,-66.165c36.546,0 66.17,29.625 66.17,66.165c0,36.543 -29.624,66.168 -66.17,66.168Z" style="fill:#808080;fill-rule:nonzero;"/></g><clipPath id="_clip4"><rect id="nvme-ssd-icon.svg" x="1867.46" y="537.763" width="226.917" height="101.102"/></clipPath><g clip-path="url(#_clip4)"><clipPath id="_clip5"><rect x="1867.46" y="477.052" width="226.917" height="226.97"/></clipPath><g clip-path="url(#_clip5)"><path d="M2093.23,548.707c0.301,0.301 0.543,0.667 0.714,1.074c0.153,0.372 0.245,0.771 0.257,1.184c0.392,2.27 0.2,15.385 0.082,23.862c-0.044,2.831 -0.076,5.125 -0.076,6.494l0.003,1.03l-2.834,0c-0.883,0.003 -1.733,0.216 -2.512,0.588c-0.859,0.416 -1.644,1.024 -2.317,1.768c-0.72,0.797 -1.311,1.742 -1.712,2.751c-0.384,0.974 -0.599,2.016 -0.599,3.061c0.002,1.048 0.215,2.093 0.599,3.061c0.401,1.01 0.989,1.957 1.712,2.751c0.67,0.741 1.458,1.352 2.314,1.765c0.782,0.375 1.629,0.591 2.509,0.591l2.834,-0l0.003,31.28c-0,0.443 -0.092,0.877 -0.26,1.281c-0.171,0.413 -0.419,0.785 -0.72,1.086c-0.301,0.301 -0.67,0.546 -1.084,0.717c-0.404,0.169 -0.841,0.263 -1.281,0.26l-200.911,0c-0.451,-0.003 -0.885,-0.094 -1.278,-0.257c-0.413,-0.171 -0.785,-0.419 -1.086,-0.72c-0.301,-0.301 -0.546,-0.67 -0.72,-1.086c-0.163,-0.399 -0.257,-0.83 -0.257,-1.278l0,-2.816l-16.07,-0c-0.762,0.001 -1.495,-0.301 -2.036,-0.839c-0.52,-0.519 -0.842,-1.242 -0.844,-2.036l0.002,-44.676c0.005,-1.125 0.93,-2.049 2.055,-2.054l2.474,-0.006c0.708,0 1.354,-0.292 1.827,-0.764c0.469,-0.47 0.764,-1.119 0.764,-1.828c-0.003,-0.686 -0.278,-1.343 -0.764,-1.827c-0.476,-0.475 -1.125,-0.77 -1.833,-0.77l-2.462,0.006c-0.547,0 -1.071,-0.217 -1.458,-0.603c-0.386,-0.387 -0.603,-0.911 -0.603,-1.458l-0.002,-13.622c0.002,-1.379 1.136,-2.512 2.514,-2.515l16.436,-0l0,-3.094c0.001,-0.438 0.088,-0.873 0.257,-1.278c0.171,-0.413 0.419,-0.785 0.72,-1.086c0.298,-0.298 0.667,-0.543 1.08,-0.714c0.393,-0.163 0.821,-0.254 1.276,-0.26l200.919,-0.003c0.449,-0 0.883,0.091 1.275,0.254c0.408,0.169 0.779,0.416 1.093,0.726Zm-191.84,10.795c0.754,-0.003 1.479,0.296 2.012,0.83c0.533,0.533 0.832,1.258 0.83,2.012c0,0.754 -0.299,1.477 -0.832,2.01c-0.533,0.533 -1.257,0.833 -2.01,0.833c-0.754,-0 -1.478,-0.3 -2.011,-0.833c-0.532,-0.533 -0.832,-1.256 -0.832,-2.01c-0,-0.753 0.3,-1.477 0.832,-2.01c0.533,-0.533 1.257,-0.833 2.011,-0.832Zm-14.78,63.531l0,-64.75l-14.827,0.003l0,3.489l10.24,-0.003l-0.003,4.123l-10.237,0l0,2.35l0.399,-0.003c1.862,0.003 3.539,0.753 4.752,1.966c1.213,1.213 1.969,2.896 1.969,4.743c-0,1.848 -0.756,3.531 -1.969,4.744c-1.216,1.216 -2.896,1.969 -4.746,1.972l-0.402,-0.006l-0.003,3.769l10.24,-0.003l-0.003,4.124l-10.237,-0l-0.003,5.34l10.243,-0l-0,4.12l-10.24,0.003l0,5.024l10.237,0l0.003,4.124l-10.24,-0.003l-0.003,5.027l10.243,-0l-0,4.121l-10.243,-0l0,5.726l14.83,0Zm27.047,-58.496l153.499,0c0.73,0.003 1.329,0.602 1.332,1.332l0.003,50.348c-0.003,0.73 -0.602,1.329 -1.332,1.332l-153.502,-0.003c-0.353,0.001 -0.692,-0.139 -0.942,-0.389c-0.25,-0.25 -0.39,-0.589 -0.389,-0.943l0,-50.345c0.002,-0.73 0.602,-1.329 1.331,-1.332Zm-7.527,-6.93c-1.216,-1.217 -2.89,-1.969 -4.737,-1.969c-1.851,0.003 -3.528,0.752 -4.741,1.966c-1.213,1.213 -1.963,2.889 -1.963,4.737c0,1.854 0.75,3.531 1.963,4.744c1.213,1.213 2.89,1.963 4.738,1.963c1.85,-0.003 3.527,-0.753 4.74,-1.966c1.21,-1.21 1.963,-2.89 1.963,-4.738c0,-1.776 -0.706,-3.482 -1.963,-4.737Z" style="fill:#666;"/></g></g><g id="レイヤー1"></g><g><path d="M1493.28,673.666c-11.852,-0 -22.816,-2.795 -32.89,-8.385c-10.075,-5.59 -18.075,-13.136 -24.001,-22.639c-5.926,-9.502 -8.889,-19.844 -8.889,-31.023l-0,-28.089l68.891,-0l-0,24.735l181.339,-0l0,-52.824l-184.45,-0c-11.852,-0 -22.816,-2.795 -32.89,-8.385c-10.075,-5.59 -18.075,-13.066 -24.001,-22.429c-5.926,-9.363 -8.889,-19.774 -8.889,-31.233l-0,-59.532c-0,-11.459 2.963,-21.87 8.889,-31.233c5.926,-9.363 13.926,-16.84 24.001,-22.43c10.074,-5.59 21.038,-8.384 32.89,-8.384l281.824,-0c11.852,-0 0,65.401 0,65.401l-278.713,-0l-0,52.824l185.339,-0c11.853,-0 22.742,2.795 32.668,8.384c9.926,5.59 17.927,13.067 24.001,22.43c6.074,9.363 9.111,19.774 9.111,31.233l0,59.532c0,11.179 -3.037,21.521 -9.111,31.023c-6.074,9.503 -14.075,17.049 -24.001,22.639c-9.926,5.59 -20.815,8.385 -32.668,8.385l-188.45,-0Z" style="fill-rule:nonzero;"/><path d="M1800.75,676.632l-0,-238.774l-29.687,0l-0,-66.043l343.122,-0l0,66.043l-244.1,0l0,238.774l-69.335,-0Z" style="fill-rule:nonzero;"/><path d="M2179.97,676.632c-11.852,-0 -22.815,-2.823 -32.89,-8.468c-10.074,-5.644 -18.075,-13.265 -24.001,-22.861c-5.926,-9.596 -8.889,-20.039 -8.889,-31.328l0,-242.16l68.891,-0l0,238.773l181.34,-0l-0,-238.773l69.78,-0l-0,242.16c-0,11.289 -3.037,21.732 -9.112,31.328c-6.074,9.596 -14.074,17.217 -24.001,22.861c-9.926,5.645 -20.815,8.468 -32.667,8.468l-188.451,-0Z" style="fill-rule:nonzero;"/><path d="M2474.64,676.632l0,-304.817l253.787,-0c12.148,-0 23.186,2.822 33.112,8.467c9.926,5.644 17.926,13.194 24.001,22.649c6.074,9.455 9.111,19.969 9.111,31.54l-0,179.504c-0,11.289 -3.037,21.732 -9.111,31.328c-6.075,9.596 -14.075,17.217 -24.001,22.861c-9.926,5.645 -20.964,8.468 -33.112,8.468l-253.787,-0Zm68.447,-66.044l181.784,-0l-0,-172.73l-181.784,0l0,172.73Z" style="fill-rule:nonzero;"/><rect x="2823.99" y="371.815" width="68.002" height="304.817" style="fill-rule:nonzero;"/><path d="M2985.77,676.632c-11.852,-0 -22.815,-2.863 -32.89,-8.587c-10.074,-5.725 -18.074,-13.453 -24,-23.184c-5.926,-9.732 -8.89,-20.322 -8.89,-31.771l0,-182.037c0,-11.735 2.964,-22.397 8.89,-31.985c5.926,-9.589 13.926,-17.245 24,-22.969c10.075,-5.725 21.038,-8.587 32.89,-8.587l188.451,-0c11.852,-0 22.742,2.862 32.668,8.587c9.926,5.724 17.926,13.38 24.001,22.969c6.074,9.588 9.111,20.25 9.111,31.985l-0,182.037c-0,11.449 -3.037,22.039 -9.111,31.771c-6.075,9.731 -14.075,17.459 -24.001,23.184c-9.926,5.724 -20.816,8.587 -32.668,8.587l-188.451,-0Zm3.112,-66.976l181.339,-0l-0,-175.168l-181.339,-0l-0,175.168Z" style="fill-rule:nonzero;"/></g><g><path d="M302.479,676.298l-38.92,-677.046l315.025,0c60.459,0 112.743,12.124 156.853,32.655c44.109,20.531 78.194,49.884 102.254,88.059c24.06,38.175 36.09,83.248 36.09,135.217c0,51.97 -12.03,96.881 -36.09,134.736c-24.06,37.854 -58.145,67.207 -102.254,88.059c-44.11,20.852 -96.394,31.278 -156.853,31.278l-190.628,-0l114.588,-97.202l17.653,264.578l-217.718,-0.334Zm200.065,-239.222l-114.588,-102.976l176.748,-0c30.229,-0 52.592,-7.058 67.09,-21.173c14.497,-14.115 21.746,-33.363 21.746,-57.744c0,-24.381 -7.249,-43.629 -21.746,-57.744c-14.498,-14.115 -36.861,-21.172 -67.09,-21.172l-176.748,-0l97.165,-102.977l17.423,363.786Z" style="fill-rule:nonzero;"/><path d="M1113.45,676.632c-51.821,-0 -99.787,-8.175 -143.897,-24.523c-44.11,-16.348 -82.359,-39.637 -114.747,-69.866c-32.389,-30.23 -57.528,-66.011 -75.419,-107.345c-17.891,-41.333 -26.836,-86.986 -26.836,-136.956c0,-49.971 8.945,-95.623 26.836,-136.957c17.891,-41.333 43.03,-77.115 75.419,-107.344c32.388,-30.229 70.637,-53.518 114.747,-69.866c44.11,-16.349 92.076,-24.523 143.897,-24.523c63.543,0 119.837,11.105 168.882,33.314c49.045,22.209 89.608,54.289 121.688,96.24l-137.882,123.075c-19.124,-24.06 -40.254,-42.721 -63.389,-55.985c-23.134,-13.264 -49.199,-19.896 -78.194,-19.896c-22.826,0 -43.493,3.702 -62.001,11.105c-18.508,7.403 -34.393,18.199 -47.657,32.388c-13.264,14.189 -23.597,31.309 -31,51.359c-7.403,20.05 -11.105,42.413 -11.105,67.09c0,24.677 3.702,47.04 11.105,67.09c7.403,20.05 17.736,37.17 31,51.359c13.264,14.189 29.149,24.985 47.657,32.388c18.508,7.403 39.175,11.105 62.001,11.105c28.995,-0 55.06,-6.632 78.194,-19.896c23.135,-13.264 44.265,-31.926 63.389,-55.986l137.882,123.076c-32.08,41.334 -72.643,73.26 -121.688,95.777c-49.045,22.518 -105.339,33.777 -168.882,33.777Z" style="fill-rule:nonzero;"/></g><g><path d="M1600.92,1.557c34.779,0 64.271,2.824 88.475,8.472c24.204,5.648 43.709,14.905 58.513,27.77c14.805,12.864 25.615,29.965 32.429,51.302c6.815,21.337 10.223,47.694 10.223,79.072c-0,31.377 -3.408,57.734 -10.223,79.071c-6.814,21.337 -17.624,38.438 -32.429,51.303c-14.804,12.864 -34.309,22.121 -58.513,27.769c-24.204,5.648 -53.696,8.472 -88.475,8.472c-33.369,-0 -64.271,-0.393 -92.705,-1.177c-28.434,-0.784 -55.341,-1.804 -80.72,-3.059l26.789,-33.888c19.74,0.314 41.711,0.706 65.916,1.177c24.204,0.47 51.111,0.706 80.72,0.706c31.019,-0 55.693,-4.001 74.023,-12.002c18.329,-8.002 31.372,-21.494 39.126,-40.477c7.755,-18.984 11.632,-44.949 11.632,-77.895c0,-32.947 -3.877,-58.912 -11.632,-77.895c-7.754,-18.984 -20.797,-32.555 -39.126,-40.713c-18.33,-8.158 -43.004,-12.237 -74.023,-12.237c-29.139,-0 -55.341,0.157 -78.605,0.471c-23.265,0.313 -45.942,0.627 -68.031,0.941l-26.789,-36.006c28.445,0 52.286,0.785 80.72,0c28.434,-0.784 59.336,-1.177 92.705,-1.177Zm-111.387,1.177l0,327.818l-62.038,-0l-0,-327.818l62.038,0Z" style="fill-rule:nonzero;"/><path d="M1895.6,2.015l70.85,-0c23.735,-0 47.234,0.242 70.498,0.727c23.265,0.485 51.762,2.082 73.381,3.051l-26.521,32.581l-177.634,-0c-14.569,-0 -25.261,2.504 -32.076,7.514c-6.815,5.009 -10.222,13.17 -10.222,24.481l-0,198.762c-0,11.312 3.407,19.553 10.222,24.724c6.815,5.171 17.507,7.756 32.076,7.756l195.28,0l2.82,32.966c-21.62,0.969 -44.061,1.616 -67.326,1.939c-23.264,0.323 -46.763,0.566 -70.498,0.727c-23.734,0.162 -47.351,0.243 -70.85,0.243c-28.669,-0 -51.346,-5.252 -68.031,-15.756c-16.684,-10.504 -25.262,-24.643 -25.732,-42.419l0,-219.122c0.47,-18.099 9.048,-32.319 25.732,-42.661c16.685,-10.342 39.362,-15.513 68.031,-15.513Zm-81.073,141.072l259.433,0l-0,34.42l-259.433,-0l-0,-34.42Z" style="fill-rule:nonzero;"/><path d="M2246.68,0.145c23.029,0.314 65.385,0.833 89.842,0c25.584,-0.87 46.187,-0.747 80.763,-0.893l0,32.959c-20.209,0.377 -48.312,1.061 -80.763,3.37c-24.382,1.735 -64.463,1.747 -87.022,1.747c-17.39,-0 -32.312,0.392 -44.766,1.177c-12.455,0.784 -22.677,2.667 -30.667,5.648c-7.99,2.98 -13.747,7.844 -17.272,14.59c-3.525,6.746 -5.287,16.081 -5.287,28.005c-0,17.885 4.817,30.358 14.452,37.417c9.634,7.06 25.261,12.316 46.881,15.768l98.697,16.473c37.599,5.962 63.331,16.395 77.195,31.299c13.865,14.905 20.797,34.908 20.797,60.01c0,18.826 -3.172,34.045 -9.517,45.654c-6.345,11.61 -16.097,20.474 -29.257,26.593c-13.159,6.118 -30.079,10.354 -50.758,12.708c-20.68,2.353 -45.119,3.53 -73.318,3.53c-15.98,-0 -36.777,-0.471 -62.391,-1.412c-25.614,-0.942 -45.644,-1.651 -84.245,-0l-0,-33.21c27.729,0.627 49.897,-1.25 67.627,-1.436c18.839,-0.197 30.835,0 43.055,0l41.702,0c24.909,0 40.898,-2.38 55.233,-4.89c14.334,-2.51 24.439,-7.531 30.314,-15.061c5.875,-7.531 8.812,-18.67 8.812,-33.418c0,-12.551 -2.115,-22.278 -6.345,-29.181c-4.23,-6.903 -10.927,-12.159 -20.092,-15.767c-9.164,-3.608 -20.797,-6.511 -34.896,-8.707l-100.812,-16.944c-35.249,-5.962 -60.041,-16.316 -74.376,-31.064c-14.334,-14.747 -21.502,-34.515 -21.502,-59.304c0,-18.826 3.173,-33.966 9.518,-45.419c6.344,-11.453 15.979,-20.081 28.904,-25.886c12.924,-5.805 29.256,-9.649 48.996,-11.532c19.739,-1.882 43.239,-2.824 70.498,-2.824Z" style="fill-rule:nonzero;"/><rect x="2417.29" y="-0.748" width="62.038" height="337.749" style="fill-rule:nonzero;"/><path d="M2697.87,-0.325c16.45,-0 32.429,0.314 47.939,0.941c15.509,0.628 30.549,1.647 45.119,3.059c14.569,1.412 28.669,3.374 42.298,5.884l-6.344,31.064c-14.57,-0.942 -29.257,-1.726 -44.062,-2.354c-14.804,-0.627 -29.021,-1.02 -42.651,-1.176c-13.63,-0.157 -26.554,-0.236 -38.774,-0.236c-26.319,0 -48.526,1.648 -66.621,4.942c-18.094,3.295 -32.546,9.649 -43.356,19.062c-10.81,9.413 -18.682,22.906 -23.617,40.477c-4.935,17.572 -7.402,40.477 -7.402,68.717c0,32.005 3.29,57.5 9.87,76.483c6.58,18.984 17.624,32.711 33.134,41.183c15.509,8.472 36.189,12.708 62.038,12.708c17.86,0 34.192,-1.726 48.996,-5.177c14.805,-3.452 28.669,-7.923 41.594,-13.414c12.925,-5.491 40.351,-28.425 49.374,-44.435l13.517,47.687c-8.46,6.59 -36.807,18.477 -51.611,25.694c-14.805,7.217 -32.077,13.335 -51.816,18.356c-19.74,5.02 -42.064,7.53 -66.973,7.53c-36.189,0 -65.681,-6.04 -88.475,-18.12c-22.795,-12.081 -39.362,-30.593 -49.702,-55.539c-10.339,-24.945 -15.509,-56.872 -15.509,-95.78c-0,-42.987 6.462,-76.64 19.387,-100.957c12.924,-24.318 34.309,-41.497 64.153,-51.538c29.844,-10.041 69.676,-15.061 119.494,-15.061Zm121.052,330.877l-33.634,-127.573l-52.614,-0l-1.302,-60.222l112.71,-0l43.147,187.795l-68.307,-0Z" style="fill-rule:nonzero;"/><path d="M3240,0l0,313.785c0,11.178 -7.99,16.767 -23.969,16.767l-60.629,-0c-7.049,-0 -12.689,-1.118 -16.919,-3.354c-4.23,-2.235 -7.755,-5.589 -10.575,-10.06l-164.26,-234.261c-4.23,-6.387 -9.165,-13.573 -14.805,-21.557c-5.64,-7.985 -9.87,-15.33 -12.689,-22.037l-11.28,-0c0.94,7.026 1.645,14.212 2.115,21.558c0.47,7.345 0.705,14.691 0.705,22.036l-0,247.675l-62.039,-0l0,-313.785c0,-11.178 8.225,-16.767 24.675,-16.767l58.513,0c7.05,0 12.69,1.118 16.92,3.353c4.23,2.236 7.754,5.589 10.574,10.061l159.326,228.512c5.17,6.706 10.692,14.292 16.567,22.755c5.875,8.463 11.397,16.847 16.567,25.151l11.985,-0c-0.47,-8.623 -0.94,-17.087 -1.41,-25.391c-0.47,-8.303 -0.705,-16.607 -0.705,-24.911l-0,-239.53l61.333,0Z" style="fill-rule:nonzero;"/></g><g id="row2_1_"><g id="desktop_x5F_computer_1_"><clipPath id="_clip6"><rect id="icon_11_" x="-0" y="-0.748" width="372.457" height="678.912"/></clipPath><g clip-path="url(#_clip6)"><path d="M109.449,480.467c-24.385,0 -44.199,19.923 -44.199,44.444c0,24.52 19.814,44.443 44.199,44.443c24.386,0 44.2,-19.923 44.2,-44.443c-0,-24.521 -19.052,-44.444 -44.2,-44.444Zm-109.449,196.165l372.647,-0l-0,-677.38l-372.647,0l-0,677.38Zm109.449,-88.887c-34.292,-0 -61.726,-27.586 -61.726,-62.068c-0,-34.482 27.434,-62.067 61.726,-62.067c34.293,-0 61.727,27.585 61.727,62.067c0,34.482 -27.434,62.068 -61.727,62.068Z" style="fill-rule:nonzero;"/><clipPath id="_clip7"><path d="M109.449,480.467c-24.385,0 -44.199,19.923 -44.199,44.444c0,24.52 19.814,44.443 44.199,44.443c24.386,0 44.2,-19.923 44.2,-44.443c-0,-24.521 -19.052,-44.444 -44.2,-44.444Zm-109.449,196.165l372.647,-0l-0,-677.38l-372.647,0l-0,677.38Zm109.449,-88.887c-34.292,-0 -61.726,-27.586 -61.726,-62.068c-0,-34.482 27.434,-62.067 61.726,-62.067c34.293,-0 61.727,27.585 61.727,62.067c0,34.482 -27.434,62.068 -61.727,62.068Z" clip-rule="nonzero"/></clipPath><g clip-path="url(#_clip7)"><path d="M347.878,87.98c0,-8.758 -7.11,-15.868 -15.867,-15.868l-261.59,0c-8.758,0 -15.868,7.11 -15.868,15.868l0,31.735c0,8.757 7.11,15.867 15.868,15.867l261.59,0c8.757,0 15.867,-7.11 15.867,-15.867l0,-31.735Z" style="fill:#fff;"/><path d="M347.878,210.617c0,-8.757 -7.11,-15.867 -15.867,-15.867l-261.59,-0c-8.758,-0 -15.868,7.11 -15.868,15.867l0,31.735c0,8.758 7.11,15.868 15.868,15.868l261.59,-0c8.757,-0 15.867,-7.11 15.867,-15.868l0,-31.735Z" style="fill:#fff;"/><path d="M164.039,413.65c0,-3.269 -2.654,-5.923 -5.923,-5.923l-97.64,0c-3.269,0 -5.923,2.654 -5.923,5.923l0,11.846c0,3.268 2.654,5.922 5.923,5.922l97.64,0c3.269,0 5.923,-2.654 5.923,-5.922l0,-11.846Z" style="fill:#fff;"/></g></g></g></g><clipPath id="_clip8"><rect id="screwdriver-svgrepo-com.svg" x="2990.31" y="467.017" width="141.491" height="141.491"/></clipPath><g clip-path="url(#_clip8)"><g><g><g><path d="M3128.82,475.539l-5.443,-5.441c-1.957,-1.959 -4.559,-3.036 -7.327,-3.036c-2.77,-0 -5.375,1.077 -7.332,3.036l-41.014,41.012c-0.035,0.036 -0.049,0.087 -0.082,0.127c-0.142,0.161 -0.26,0.335 -0.354,0.526c-0.038,0.08 -0.071,0.158 -0.099,0.243c-0.068,0.196 -0.106,0.396 -0.123,0.606c-0.002,0.056 -0.033,0.108 -0.033,0.165c0,0.021 0.014,0.04 0.014,0.061c0,0.031 -0.009,0.057 -0.009,0.088c0.106,1.678 0.325,5.17 -1.002,6.497c-1.33,1.327 -4.821,1.112 -6.502,1.006c-0.023,-0.002 -0.047,0.007 -0.073,0.007c-0.082,-0.002 -0.16,0.012 -0.243,0.019c-0.205,0.014 -0.4,0.047 -0.594,0.115c-0.08,0.029 -0.153,0.059 -0.228,0.095c-0.198,0.094 -0.377,0.214 -0.542,0.36c-0.04,0.036 -0.092,0.048 -0.13,0.088l-6.667,6.664c-0.922,0.922 -0.922,2.414 0,3.333l3.312,3.315l-52.051,52.052l10,10l52.054,-52.052l3.312,3.313c0.46,0.459 1.063,0.69 1.667,0.69c0.603,0 1.207,-0.231 1.666,-0.69l6.667,-6.665c0.036,-0.037 0.048,-0.085 0.08,-0.122c0.146,-0.168 0.267,-0.344 0.361,-0.542c0.038,-0.083 0.073,-0.163 0.101,-0.248c0.064,-0.188 0.1,-0.382 0.114,-0.582c0.007,-0.08 0.023,-0.155 0.021,-0.236c-0,-0.028 0.01,-0.056 0.01,-0.084c-0.107,-1.679 -0.326,-5.172 1.001,-6.5c1.33,-1.329 4.821,-1.108 6.5,-1.004c0.026,0.002 0.049,-0.007 0.075,-0.007c0.024,-0 0.048,0.014 0.071,0.014c0.068,-0 0.134,-0.033 0.203,-0.04c0.179,-0.017 0.354,-0.045 0.523,-0.102c0.104,-0.033 0.203,-0.075 0.304,-0.125c0.17,-0.085 0.323,-0.191 0.472,-0.313c0.052,-0.045 0.115,-0.061 0.165,-0.111l41.155,-41.154c3.963,-3.965 3.963,-10.415 0,-14.378Zm-59.489,67.198l-13.294,-13.293l3.331,-3.329l13.294,13.291l-3.331,3.331Zm6.688,-13.312c-1.24,1.24 -1.881,2.845 -2.195,4.474l-8.946,-8.946c1.627,-0.316 3.234,-0.955 4.472,-2.197c1.24,-1.238 1.881,-2.846 2.194,-4.472l8.947,8.946c-1.627,0.316 -3.232,0.955 -4.472,2.195Zm43.251,-46.597l-33.004,33.004c-0.459,0.46 -1.063,0.691 -1.666,0.691c-0.604,-0 -1.207,-0.231 -1.667,-0.691c-0.922,-0.921 -0.922,-2.411 0,-3.333l33.004,-33.004c0.922,-0.922 2.411,-0.922 3.333,-0c0.922,0.922 0.922,2.411 0,3.333Z" style="fill:#808080;fill-rule:nonzero;"/><path d="M2995.21,593.529c-0.142,0.139 -0.264,0.295 -0.366,0.467l-3.774,6.337c-1.263,2.116 -0.926,4.813 0.816,6.555c1.039,1.038 2.414,1.575 3.8,1.575c0.955,0 1.916,-0.252 2.782,-0.775l6.289,-3.8c0.161,-0.097 0.309,-0.212 0.441,-0.344l3.77,-3.737l-10.001,-10.002l-3.757,3.724Z" style="fill:#808080;fill-rule:nonzero;"/></g></g></g></g><clipPath id="_clip9"><rect id="cpu-processor-svgrepo-com.svg" x="1480.99" y="28.67" width="161.855" height="169.277"/></clipPath><g clip-path="url(#_clip9)"><path d="M1642.85,188.102l-0,-149.587c-2.636,1.519 -6.012,1.117 -8.247,-1.22c-2.234,-2.337 -2.62,-5.869 -1.167,-8.625l-123.753,-0l0,2.483c0,2.204 -1.707,3.99 -3.815,3.99c-2.107,-0 -3.814,-1.786 -3.814,-3.99l-0,-2.483l-11.646,-0c1.453,2.756 1.068,6.288 -1.167,8.625c-2.235,2.336 -5.611,2.739 -8.247,1.22l0,149.588c2.636,-1.519 6.012,-1.116 8.247,1.221c2.234,2.337 2.619,5.868 1.167,8.624l11.646,0l-0,-2.482c-0,-2.205 1.707,-3.991 3.814,-3.991c2.108,0 3.815,1.786 3.815,3.991l0,2.481l123.753,0c-1.453,-2.756 -1.068,-6.287 1.167,-8.624c2.235,-2.336 5.611,-2.74 8.247,-1.221Zm-19.829,-31.256c-0,11.228 -8.735,20.363 -19.471,20.363l-20.14,0c-2.786,0 -5.044,-2.362 -5.044,-5.276c-0,-2.914 2.259,-5.276 5.044,-5.276l20.14,0c5.173,0 9.382,-4.401 9.382,-9.811l-0,-87.075c-0,-5.41 -4.209,-9.811 -9.382,-9.811l-83.258,-0c-5.171,-0 -9.379,4.401 -9.379,9.811l-0,87.075c-0,5.41 4.207,9.811 9.379,9.811l20.142,0c2.787,0 5.045,2.363 5.045,5.276c-0,2.915 -2.259,5.276 -5.045,5.276l-20.142,0c-10.735,0 -19.468,-9.135 -19.468,-20.363l-0,-87.075c-0,-11.228 8.733,-20.363 19.468,-20.363l83.258,0c10.736,0 19.471,9.136 19.471,20.363l-0,87.075Zm-94.8,-2.012c-3.31,0 -6.005,-2.815 -6.005,-6.283l0,-70.486c0,-3.467 2.695,-6.283 6.005,-6.283l67.399,0c3.315,0 6.007,2.816 6.007,6.283l0,70.486c0,3.467 -2.692,6.283 -6.007,6.283l-67.399,0Z" style="fill:#808080;fill-rule:nonzero;"/></g><path d="M1600.92,1.557c34.779,0 64.271,2.824 88.475,8.472c24.204,5.648 43.709,14.905 58.513,27.77c14.805,12.864 25.615,29.965 32.429,51.302c6.815,21.337 10.223,47.694 10.223,79.072c-0,31.377 -3.408,57.734 -10.223,79.071c-6.814,21.337 -17.624,38.438 -32.429,51.303c-14.804,12.864 -34.309,22.121 -58.513,27.769c-24.204,5.648 -53.696,8.472 -88.475,8.472c-33.369,-0 -64.271,-0.393 -92.705,-1.177c-28.434,-0.784 -55.341,-1.804 -80.72,-3.059l26.789,-33.888c19.74,0.314 41.711,0.706 65.916,1.177c24.204,0.47 51.111,0.706 80.72,0.706c31.019,-0 55.693,-4.001 74.023,-12.002c18.329,-8.002 31.372,-21.494 39.126,-40.477c7.755,-18.984 11.632,-44.949 11.632,-77.895c0,-32.947 -3.877,-58.912 -11.632,-77.895c-7.754,-18.984 -20.797,-32.555 -39.126,-40.713c-18.33,-8.158 -43.004,-12.237 -74.023,-12.237c-29.139,-0 -55.341,0.157 -78.605,0.471c-23.265,0.313 -45.942,0.627 -68.031,0.941l-26.789,-36.006c28.445,0 52.286,0.785 80.72,0c28.434,-0.784 59.336,-1.177 92.705,-1.177Zm-111.387,1.177l0,327.818l-62.038,-0l-0,-327.818l62.038,0Z" style="fill-rule:nonzero;"/></g></svg>