<?xml version="1.0" encoding="UTF-8" standalone="no"?><!DOCTYPE svg PUBLIC "-//W3C//DTD SVG 1.1//EN" "http://www.w3.org/Graphics/SVG/1.1/DTD/svg11.dtd"><svg width="100%" height="100%" viewBox="0 0 3681 877" version="1.1" xmlns="http://www.w3.org/2000/svg" xmlns:xlink="http://www.w3.org/1999/xlink" xml:space="preserve" xmlns:serif="http://www.serif.com/" style="fill-rule:evenodd;clip-rule:evenodd;stroke-miterlimit:10;"><rect id="タイトルベース（加工）２" x="0" y="0" width="3680.14" height="876.359" style="fill:none;"/><path d="M3680.14,219.09c-0,-120.919 -98.171,-219.09 -219.09,-219.09l-3241.96,0c-120.919,0 -219.09,98.171 -219.09,219.09l0,438.179c0,120.919 98.171,219.09 219.09,219.09l3241.96,-0c120.919,-0 219.09,-98.171 219.09,-219.09l-0,-438.179Z" style="fill:#fff;"/><path d="M3680.14,219.09c-0,-120.919 -98.171,-219.09 -219.09,-219.09l-3241.96,0c-120.919,0 -219.09,98.171 -219.09,219.09l0,438.179c0,120.919 98.171,219.09 219.09,219.09l3241.96,-0c120.919,-0 219.09,-98.171 219.09,-219.09l-0,-438.179Zm-41.667,-0l-0,438.179c-0,97.923 -79.501,177.423 -177.423,177.423c-0,0 -3241.96,0 -3241.96,0c-97.923,0 -177.423,-79.5 -177.423,-177.423c-0,0 -0,-438.179 -0,-438.179c-0,-97.923 79.5,-177.423 177.423,-177.423l3241.96,-0c97.922,-0 177.423,79.5 177.423,177.423Z"/><clipPath id="_clip1"><rect id="cpu-processor-svgrepo-com.svg" x="1541.36" y="337.066" width="202.227" height="202.227"/></clipPath><g clip-path="url(#_clip1)"><path d="M1743.58,527.531l-0,-178.703c-3.293,1.814 -7.512,1.333 -10.304,-1.458c-2.791,-2.792 -3.273,-7.011 -1.458,-10.304l-154.62,0l-0,2.966c-0,2.633 -2.134,4.767 -4.767,4.767c-2.632,-0 -4.766,-2.134 -4.766,-4.767l0,-2.966l-14.55,0c1.815,3.293 1.335,7.512 -1.458,10.304c-2.793,2.79 -7.011,3.272 -10.304,1.458l0,178.704c3.293,-1.814 7.511,-1.333 10.304,1.458c2.791,2.792 3.272,7.011 1.458,10.304l14.55,-0l0,-2.966c0,-2.634 2.134,-4.767 4.766,-4.767c2.633,-0 4.767,2.133 4.767,4.767l-0,2.965l154.62,-0c-1.815,-3.293 -1.335,-7.512 1.458,-10.304c2.792,-2.79 7.011,-3.272 10.304,-1.458Zm-24.775,-37.34c-0,13.413 -10.914,24.327 -24.327,24.327l-25.164,-0c-3.481,-0 -6.302,-2.822 -6.302,-6.303c-0,-3.482 2.822,-6.303 6.302,-6.303l25.164,0c6.463,0 11.721,-5.258 11.721,-11.721l0,-104.023c0,-6.464 -5.258,-11.721 -11.721,-11.721l-104.025,-0c-6.461,-0 -11.719,5.257 -11.719,11.721l-0,104.023c-0,6.463 5.256,11.721 11.719,11.721l25.166,0c3.481,0 6.302,2.822 6.302,6.303c0,3.482 -2.822,6.303 -6.302,6.303l-25.166,-0c-13.412,-0 -24.325,-10.914 -24.325,-24.327l0,-104.023c0,-13.415 10.913,-24.327 24.325,-24.327l104.025,0c13.413,0 24.327,10.914 24.327,24.327l-0,104.023Zm-118.445,-2.403c-4.136,-0 -7.503,-3.364 -7.503,-7.506l-0,-84.206c-0,-4.142 3.367,-7.506 7.503,-7.506l84.209,-0c4.142,-0 7.506,3.364 7.506,7.506l-0,84.206c-0,4.141 -3.364,7.506 -7.506,7.506l-84.209,-0Z" style="fill:#808080;fill-rule:nonzero;"/></g><g><g id="レイヤー1"></g><g><path d="M470.767,776.535l-38.92,-677.045l315.026,-0c60.458,-0 112.742,12.123 156.852,32.655c44.11,20.531 78.195,49.884 102.255,88.059c24.06,38.175 36.09,83.247 36.09,135.217c-0,51.969 -12.03,96.881 -36.09,134.735c-24.06,37.855 -58.145,67.208 -102.255,88.06c-44.11,20.852 -96.394,31.278 -156.852,31.278l-190.629,-0l114.588,-97.203l17.654,264.578l-217.719,-0.334Zm200.065,-239.221l-114.588,-102.977l176.748,0c30.229,0 52.593,-7.057 67.09,-21.172c14.498,-14.116 21.747,-33.364 21.747,-57.744c-0,-24.381 -7.249,-43.629 -21.747,-57.744c-14.497,-14.115 -36.861,-21.173 -67.09,-21.173l-176.748,0l97.165,-102.976l17.423,363.786Z" style="fill-rule:nonzero;"/><path d="M1281.74,776.869c-51.822,0 -99.787,-8.174 -143.897,-24.522c-44.11,-16.349 -82.359,-39.638 -114.747,-69.867c-32.389,-30.229 -57.528,-66.01 -75.419,-107.344c-17.891,-41.334 -26.836,-86.986 -26.836,-136.957c-0,-49.97 8.945,-95.622 26.836,-136.956c17.891,-41.334 43.03,-77.115 75.419,-107.344c32.388,-30.23 70.637,-53.518 114.747,-69.867c44.11,-16.348 92.075,-24.522 143.897,-24.522c63.543,-0 119.837,11.104 168.882,33.313c49.045,22.21 89.608,54.289 121.688,96.24l-137.882,123.076c-19.125,-24.06 -40.254,-42.722 -63.389,-55.986c-23.134,-13.264 -49.199,-19.895 -78.195,-19.895c-22.826,-0 -43.493,3.701 -62,11.104c-18.508,7.403 -34.394,18.199 -47.657,32.389c-13.264,14.189 -23.598,31.308 -31.001,51.358c-7.403,20.05 -11.104,42.414 -11.104,67.09c-0,24.677 3.701,47.041 11.104,67.091c7.403,20.05 17.737,37.169 31.001,51.358c13.263,14.189 29.149,24.986 47.657,32.389c18.507,7.403 39.174,11.104 62,11.104c28.996,0 55.061,-6.632 78.195,-19.895c23.135,-13.264 44.264,-31.926 63.389,-55.986l137.882,123.076c-32.08,41.333 -72.643,73.259 -121.688,95.777c-49.045,22.517 -105.339,33.776 -168.882,33.776Z" style="fill-rule:nonzero;"/></g><g id="row2_1_"><g id="desktop_x5F_computer_1_"><clipPath id="_clip2"><rect id="icon_11_" x="168.289" y="99.49" width="372.457" height="678.912"/></clipPath><g clip-path="url(#_clip2)"><path d="M277.738,580.705c-24.386,-0 -44.199,19.923 -44.199,44.443c-0,24.521 19.813,44.444 44.199,44.444c24.386,-0 44.199,-19.923 44.199,-44.444c0,-24.52 -19.051,-44.443 -44.199,-44.443Zm-109.449,196.164l372.646,0l0,-677.379l-372.646,-0l-0,677.379Zm109.449,-88.887c-34.293,0 -61.727,-27.585 -61.727,-62.067c0,-34.482 27.434,-62.068 61.727,-62.068c34.293,0 61.727,27.586 61.727,62.068c-0,34.482 -27.434,62.067 -61.727,62.067Z" style="fill-rule:nonzero;"/><clipPath id="_clip3"><path d="M277.738,580.705c-24.386,-0 -44.199,19.923 -44.199,44.443c-0,24.521 19.813,44.444 44.199,44.444c24.386,-0 44.199,-19.923 44.199,-44.444c0,-24.52 -19.051,-44.443 -44.199,-44.443Zm-109.449,196.164l372.646,0l0,-677.379l-372.646,-0l-0,677.379Zm109.449,-88.887c-34.293,0 -61.727,-27.585 -61.727,-62.067c0,-34.482 27.434,-62.068 61.727,-62.068c34.293,0 61.727,27.586 61.727,62.068c-0,34.482 -27.434,62.067 -61.727,62.067Z" clip-rule="nonzero"/></clipPath><g clip-path="url(#_clip3)"><path d="M516.167,188.217c-0,-8.757 -7.11,-15.867 -15.868,-15.867l-261.589,-0c-8.758,-0 -15.868,7.11 -15.868,15.867l0,31.735c0,8.758 7.11,15.868 15.868,15.868l261.589,0c8.758,0 15.868,-7.11 15.868,-15.868l-0,-31.735Z" style="fill:#fff;"/><path d="M516.167,310.855c-0,-8.758 -7.11,-15.868 -15.868,-15.868l-261.589,0c-8.758,0 -15.868,7.11 -15.868,15.868l0,31.735c0,8.757 7.11,15.867 15.868,15.867l261.589,0c8.758,0 15.868,-7.11 15.868,-15.867l-0,-31.735Z" style="fill:#fff;"/><path d="M332.328,513.888c-0,-3.269 -2.654,-5.923 -5.923,-5.923l-97.64,0c-3.269,0 -5.923,2.654 -5.923,5.923l0,11.845c0,3.269 2.654,5.923 5.923,5.923l97.64,-0c3.269,-0 5.923,-2.654 5.923,-5.923l-0,-11.845Z" style="fill:#fff;"/></g></g></g></g></g><g><path d="M1791.01,407.725l-0,-308.235l158.828,-0c35.909,-0 67.521,6.238 94.837,18.714c27.315,12.476 48.646,30.163 63.991,53.06c15.346,22.898 23.019,50.346 23.019,82.343c0,31.705 -7.673,59.079 -23.019,82.123c-15.345,23.044 -36.676,40.805 -63.991,53.281c-27.316,12.476 -58.928,18.714 -94.837,18.714l-158.828,0Zm108.647,-81.022l45.577,0c15.346,0 28.774,-2.789 40.283,-8.366c11.509,-5.578 20.486,-13.871 26.932,-24.879c6.445,-11.009 9.667,-24.292 9.667,-39.851c0,-15.852 -3.222,-29.209 -9.667,-40.07c-6.446,-10.862 -15.423,-19.081 -26.932,-24.659c-11.509,-5.578 -24.937,-8.366 -40.283,-8.366l-45.577,-0l0,146.191Z" style="fill-rule:nonzero;"/><path d="M2162.2,407.725l-0,-308.235l250.551,-0l-0,78.38l-148.393,-0l-0,151.475l95.117,0l0,78.38l-197.275,0Zm95.112,-118.891l0,-74.857l137.385,0l0,74.857l-137.385,0Z" style="fill-rule:nonzero;"/><path d="M2567.15,408.613c-25.256,0 -6.961,-0.888 -31.185,-0.888l-32.744,0l-0,-78.135c18.351,-0 -5.006,-0 13.345,-0c28.677,-0 33.949,0.929 50.584,1.534c14.909,0.542 21.82,0.749 27.417,-0c5.692,-0.762 10.721,-3.902 11.973,-7.227c2.041,-5.422 -2.368,-12.89 -8.395,-16.047c-6.027,-3.157 -13.991,-5.812 -23.892,-7.964c-9.902,-2.153 -20.736,-4.449 -32.503,-6.888c-11.767,-2.44 -23.605,-5.668 -35.516,-9.686c-11.91,-4.018 -22.816,-9.328 -32.717,-15.929c-9.902,-6.601 -17.866,-15.282 -23.893,-26.045c-6.027,-10.762 -9.04,-24.179 -9.04,-40.251c-0,-18.655 5.237,-35.66 15.713,-51.014c10.475,-15.354 26.117,-27.624 46.924,-36.807c20.807,-9.184 46.709,-13.776 77.705,-13.776c20.376,-0 40.466,2.152 60.269,6.457c19.803,4.305 37.597,10.906 53.382,19.803l-30.566,73.615c-14.924,-7.462 -29.345,-13.059 -43.265,-16.79c-13.919,-3.731 -27.48,-5.596 -40.681,-5.596c-9.758,-0 -17.507,0.861 -23.247,2.583c-5.74,1.722 -9.83,4.018 -12.269,6.888c-2.44,2.87 -3.66,6.027 -3.66,9.471c0,5.166 3.014,9.256 9.041,12.269c6.027,3.013 13.991,5.525 23.892,7.534c9.902,2.009 20.808,4.161 32.718,6.457c11.91,2.296 23.749,5.453 35.516,9.471c11.767,4.018 22.601,9.327 32.502,15.928c9.902,6.601 17.866,15.211 23.893,25.83c6.027,10.619 9.04,23.821 9.04,39.606c0,18.368 -5.237,35.229 -15.713,50.583c-10.475,15.355 -26.045,27.695 -46.709,37.023c-20.663,9.327 -46.637,7.991 -77.919,7.991Z" style="fill-rule:nonzero;"/><rect x="2736.47" y="99.49" width="103.919" height="308.235" style="fill-rule:nonzero;"/><path d="M3044.57,414.613c-24.395,0 -46.852,-3.803 -67.373,-11.408c-20.52,-7.606 -38.314,-18.44 -53.381,-32.503c-15.067,-14.063 -26.763,-30.708 -35.086,-49.937c-8.322,-19.229 -12.484,-40.467 -12.484,-63.714c0,-23.246 4.162,-44.484 12.484,-63.713c8.323,-19.229 20.09,-35.875 35.301,-49.938c15.211,-14.063 33.22,-24.897 54.027,-32.502c20.808,-7.606 43.696,-11.408 68.665,-11.408c29.847,-0 56.466,5.022 79.857,15.067c23.39,10.045 42.691,24.395 57.901,43.05l-65.004,57.256c-9.471,-10.906 -19.732,-19.157 -30.781,-24.754c-11.049,-5.596 -23.319,-8.395 -36.807,-8.395c-11.193,0 -21.31,1.722 -30.35,5.166c-9.041,3.444 -16.718,8.467 -23.032,15.068c-6.314,6.601 -11.193,14.493 -14.637,23.677c-3.444,9.184 -5.166,19.659 -5.166,31.426c0,11.193 1.722,21.453 5.166,30.781c3.444,9.327 8.323,17.291 14.637,23.892c6.314,6.601 13.848,11.696 22.601,15.283c8.754,3.587 18.583,5.381 29.489,5.381c11.48,0 22.673,-1.937 33.579,-5.812c10.906,-3.874 22.529,-10.547 34.87,-20.018l56.826,69.741c-18.368,12.341 -39.319,21.812 -62.853,28.413c-23.534,6.601 -46.35,9.901 -68.449,9.901Zm131.302,-38.314l-88.252,-12.915l-0,-114.512l88.252,-0l-0,127.427Z" style="fill-rule:nonzero;"/><path d="M3215.96,407.725l-0,-308.235l85.425,-0l156.76,187.583l-39.63,-0l-0,-187.583l101.277,-0l-0,308.235l-85.425,0l-156.76,-187.583l39.63,-0l0,187.583l-101.277,0Z" style="fill-rule:nonzero;"/><path d="M1921.86,775.318c-25.132,-0 -49.406,-2.856 -72.824,-8.568c-23.418,-5.711 -42.695,-13.137 -57.831,-22.275l32.556,-73.681c14.28,8.282 30.201,14.922 47.764,19.919c17.564,4.998 34.628,7.497 51.192,7.497c9.709,-0 17.349,-0.643 22.918,-1.928c5.569,-1.285 9.638,-3.141 12.208,-5.569c2.571,-2.427 3.856,-5.354 3.856,-8.781c-0,-5.426 -2.999,-9.71 -8.996,-12.852c-5.997,-3.141 -13.922,-5.783 -23.775,-7.925c-9.853,-2.142 -20.634,-4.426 -32.342,-6.854c-11.709,-2.427 -23.49,-5.64 -35.342,-9.638c-11.851,-3.998 -22.704,-9.282 -32.556,-15.85c-9.853,-6.569 -17.778,-15.208 -23.775,-25.917c-5.997,-10.709 -8.996,-24.06 -8.996,-40.053c-0,-18.563 5.212,-35.484 15.636,-50.763c10.424,-15.279 25.988,-27.487 46.693,-36.626c20.705,-9.139 46.479,-13.708 77.322,-13.708c20.276,-0 40.685,1.07 60.829,2c25.883,1.195 44.252,3.078 76.231,4.956l0,80.081c-14.281,0.262 -83.584,-0.648 -97.435,-4.36c-13.851,-3.713 -27.345,-5.569 -40.482,-5.569c-9.71,-0 -17.421,0.856 -23.132,2.57c-5.712,1.713 -9.782,3.998 -12.209,6.854c-2.427,2.856 -3.641,5.997 -3.641,9.424c-0,5.141 2.998,9.21 8.996,12.209c5.997,2.999 13.922,5.498 23.775,7.497c9.852,1.999 20.705,4.141 32.556,6.425c11.852,2.285 23.632,5.426 35.341,9.425c11.709,3.998 22.49,9.281 32.343,15.85c9.853,6.568 17.778,15.136 23.775,25.702c5.997,10.567 8.996,23.704 8.996,39.411c-0,18.277 -5.212,35.055 -15.636,50.334c-10.424,15.279 -25.917,27.559 -46.479,36.841c-20.562,9.281 -46.407,13.922 -77.536,13.922Z" style="fill-rule:nonzero;"/><path d="M2104.54,775.318l-0,-226.508l-41.815,-0l0,-80.176l350.026,-0l-0,80.176l-204.815,-0l0,226.508l-103.396,-0Z" style="fill-rule:nonzero;"/><path d="M2507.31,775.318c-45.974,-0 -81.811,-12.422 -107.511,-37.265c-25.7,-24.843 -38.55,-59.68 -38.55,-104.512l0,-164.907l101.086,-0l-0,161.908c-0,22.845 4.141,39.05 12.422,48.616c8.281,9.566 19.417,14.349 33.409,14.349c14.278,-0 25.486,-4.783 33.624,-14.349c8.138,-9.566 12.208,-25.771 12.208,-48.616l-0,-161.908l99.372,-0l0,164.907c0,44.832 -12.85,79.669 -38.55,104.512c-25.699,24.843 -61.536,37.265 -107.51,37.265Z" style="fill-rule:nonzero;"/><path d="M2697.78,775.318l-0,-306.684l151.151,-0c34.174,-0 64.258,6.206 90.253,18.62c25.995,12.413 46.295,30.011 60.899,52.793c14.604,22.783 21.906,50.092 21.906,81.929c-0,31.544 -7.302,58.781 -21.906,81.709c-14.604,22.928 -34.904,40.599 -60.899,53.013c-25.995,12.413 -56.079,18.62 -90.253,18.62l-151.151,-0Zm103.396,-80.614l43.374,-0c14.604,-0 27.382,-2.775 38.335,-8.325c10.953,-5.549 19.497,-13.8 25.631,-24.753c6.133,-10.953 9.2,-24.17 9.2,-39.65c0,-15.773 -3.067,-29.062 -9.2,-39.869c-6.134,-10.807 -14.678,-18.985 -25.631,-24.535c-10.953,-5.549 -23.731,-8.324 -38.335,-8.324l-43.374,-0l0,145.456Z" style="fill-rule:nonzero;"/><rect x="3055.29" y="468.634" width="103.396" height="306.684" style="fill-rule:nonzero;"/><path d="M3365.29,775.318c-24.56,-0 -47.193,-3.856 -67.898,-11.566c-20.705,-7.711 -38.625,-18.635 -53.761,-32.771c-15.136,-14.137 -26.917,-30.772 -35.341,-49.906c-8.425,-19.134 -12.638,-39.982 -12.638,-62.543c0,-22.847 4.213,-43.766 12.638,-62.757c8.424,-18.992 20.205,-35.556 35.341,-49.692c15.136,-14.137 33.056,-25.06 53.761,-32.771c20.705,-7.711 43.195,-11.566 67.469,-11.566c24.561,-0 47.122,3.855 67.684,11.566c20.562,7.711 38.411,18.634 53.547,32.771c15.136,14.136 26.917,30.7 35.341,49.692c8.425,18.991 12.637,39.91 12.637,62.757c0,22.561 -4.212,43.409 -12.637,62.543c-8.424,19.134 -20.205,35.769 -35.341,49.906c-15.136,14.136 -32.985,25.06 -53.547,32.771c-20.562,7.71 -42.98,11.566 -67.255,11.566Zm-0.429,-81.82c9.425,-0 18.206,-1.714 26.346,-5.141c8.139,-3.427 15.278,-8.353 21.419,-14.779c6.14,-6.425 10.923,-14.279 14.35,-23.56c3.427,-9.282 5.141,-19.777 5.141,-31.486c-0,-11.709 -1.714,-22.204 -5.141,-31.486c-3.427,-9.281 -8.21,-17.135 -14.35,-23.561c-6.141,-6.425 -13.28,-11.352 -21.419,-14.779c-8.14,-3.427 -16.921,-5.14 -26.346,-5.14c-9.424,-0 -18.206,1.713 -26.345,5.14c-8.139,3.427 -15.279,8.354 -21.419,14.779c-6.14,6.426 -10.923,14.28 -14.35,23.561c-3.427,9.282 -5.141,19.777 -5.141,31.486c0,11.709 1.714,22.204 5.141,31.486c3.427,9.281 8.21,17.135 14.35,23.56c6.14,6.426 13.28,11.352 21.419,14.779c8.139,3.427 16.921,5.141 26.345,5.141Z" style="fill-rule:nonzero;"/></g><clipPath id="_clip4"><rect id="memory-ram-svgrepo-com.svg" x="2358.66" y="329.521" width="145.091" height="78.204"/></clipPath><g clip-path="url(#_clip4)"><clipPath id="_clip5"><rect x="2353.89" y="304.628" width="154.98" height="127.308"/></clipPath><g clip-path="url(#_clip5)"><path d="M2499.18,358.15c-3.699,0.904 -5.107,1.888 -5.031,5.066c0.067,2.827 2.158,4.247 5.031,5.066l0,35.434l-135.607,0l-0,-35.434c2.694,-0.687 4.542,-2.749 4.542,-5.066c-0,-2.317 -1.848,-4.378 -4.542,-5.066l-0,-25.302l135.607,-0l0,25.302Z" style="fill:none;fill-rule:nonzero;stroke:#808080;stroke-width:7.98px;"/><path d="M2480.52,378.236l-0,-30.395l-21.435,-0l-0,30.395l21.435,-0Z" style="fill:none;stroke:#808080;stroke-width:6.22px;"/><path d="M2442.1,378.236l-0,-30.395l-21.435,-0l0,30.395l21.435,-0Z" style="fill:none;stroke:#808080;stroke-width:6.22px;"/><path d="M2403.68,378.236l0,-30.395l-21.435,-0l0,30.395l21.435,-0Z" style="fill:none;stroke:#808080;stroke-width:6.22px;"/><path d="M2382.05,388.545l0,15.171" style="fill:none;fill-rule:nonzero;stroke:#808080;stroke-width:11.29px;"/><path d="M2406.71,388.545l-0,15.171" style="fill:none;fill-rule:nonzero;stroke:#808080;stroke-width:11.29px;"/><path d="M2431.38,388.545l-0,15.171" style="fill:none;fill-rule:nonzero;stroke:#808080;stroke-width:11.29px;"/><path d="M2456.05,388.545l0,15.171" style="fill:none;fill-rule:nonzero;stroke:#808080;stroke-width:11.29px;"/><path d="M2480.72,388.545l-0,15.171" style="fill:none;fill-rule:nonzero;stroke:#808080;stroke-width:11.29px;"/></g></g><clipPath id="_clip6"><rect id="nvme-ssd-icon.svg" x="2208.07" y="570.955" width="135.859" height="51.02"/></clipPath><g clip-path="url(#_clip6)"><clipPath id="_clip7"><rect x="2208.07" y="528.33" width="135.859" height="135.891"/></clipPath><g clip-path="url(#_clip7)"><path d="M2343.24,571.231c0.18,0.18 0.325,0.399 0.428,0.643c0.091,0.223 0.146,0.461 0.153,0.709c0.235,1.359 0.12,9.211 0.05,14.286c-0.027,1.695 -0.046,3.068 -0.046,3.888l0.002,0.617l-1.697,0c-0.528,0.002 -1.037,0.129 -1.504,0.352c-0.514,0.249 -0.984,0.613 -1.387,1.059c-0.432,0.477 -0.785,1.042 -1.025,1.647c-0.23,0.583 -0.359,1.207 -0.359,1.832c0.002,0.628 0.129,1.253 0.359,1.833c0.24,0.604 0.592,1.172 1.025,1.647c0.401,0.444 0.873,0.81 1.385,1.057c0.469,0.224 0.976,0.353 1.502,0.353l1.697,0l0.002,18.728c-0,0.265 -0.055,0.525 -0.156,0.767c-0.102,0.248 -0.251,0.47 -0.431,0.651c-0.18,0.18 -0.401,0.327 -0.649,0.429c-0.242,0.101 -0.503,0.157 -0.767,0.156l-120.288,-0c-0.271,-0.002 -0.53,-0.057 -0.765,-0.154c-0.248,-0.103 -0.471,-0.251 -0.651,-0.431c-0.18,-0.181 -0.327,-0.401 -0.431,-0.651c-0.097,-0.238 -0.154,-0.496 -0.154,-0.765l0,-1.686l-9.621,0c-0.457,0.001 -0.895,-0.18 -1.219,-0.502c-0.311,-0.311 -0.504,-0.744 -0.506,-1.219l0.002,-26.748c0.003,-0.674 0.556,-1.227 1.23,-1.23l1.481,-0.004c0.424,0 0.811,-0.175 1.094,-0.457c0.281,-0.281 0.458,-0.67 0.458,-1.094c-0.002,-0.411 -0.167,-0.804 -0.458,-1.094c-0.285,-0.285 -0.673,-0.462 -1.098,-0.462l-1.473,0.004c-0.328,0 -0.642,-0.13 -0.873,-0.361c-0.231,-0.231 -0.361,-0.545 -0.361,-0.873l-0.002,-8.156c0.002,-0.825 0.681,-1.504 1.506,-1.505l9.84,-0l0,-1.852c0.001,-0.263 0.053,-0.523 0.154,-0.766c0.102,-0.247 0.251,-0.47 0.431,-0.65c0.179,-0.179 0.4,-0.325 0.647,-0.428c0.235,-0.097 0.491,-0.152 0.763,-0.155l120.294,-0.002c0.269,-0 0.529,0.055 0.764,0.152c0.244,0.101 0.466,0.249 0.654,0.435Zm-114.858,6.463c0.452,-0.002 0.886,0.177 1.205,0.497c0.319,0.319 0.498,0.753 0.497,1.205c0,0.451 -0.179,0.884 -0.498,1.203c-0.32,0.319 -0.753,0.499 -1.204,0.498c-0.451,0.001 -0.884,-0.179 -1.204,-0.498c-0.319,-0.319 -0.498,-0.752 -0.498,-1.203c0,-0.452 0.179,-0.885 0.498,-1.204c0.32,-0.319 0.753,-0.498 1.204,-0.498Zm-8.849,38.037l0,-38.767l-8.877,0.002l0,2.088l6.131,-0.001l-0.002,2.469l-6.129,-0l0,1.406l0.239,-0.001c1.115,0.001 2.119,0.45 2.845,1.177c0.726,0.726 1.179,1.733 1.179,2.84c-0,1.106 -0.453,2.113 -1.179,2.84c-0.728,0.728 -1.734,1.178 -2.842,1.18l-0.24,-0.003l-0.002,2.257l6.131,-0.002l-0.002,2.469l-6.129,-0l-0.002,3.197l6.133,-0l-0,2.467l-6.131,0.002l0,3.008l6.129,-0l0.002,2.468l-6.131,-0.001l-0.002,3.009l6.133,0l-0,2.467l-6.133,0l0,3.429l8.879,0Zm16.194,-35.022l91.902,-0c0.437,0.001 0.796,0.36 0.797,0.797l0.002,30.144c-0.001,0.437 -0.36,0.796 -0.797,0.797l-91.904,-0.001c-0.212,0 -0.415,-0.084 -0.564,-0.233c-0.15,-0.15 -0.234,-0.353 -0.233,-0.564l-0,-30.143c0.001,-0.437 0.36,-0.796 0.797,-0.797Zm-4.507,-4.15c-0.728,-0.728 -1.73,-1.179 -2.836,-1.179c-1.108,0.002 -2.112,0.451 -2.838,1.177c-0.727,0.727 -1.176,1.73 -1.176,2.837c0,1.11 0.449,2.113 1.176,2.84c0.726,0.726 1.73,1.175 2.836,1.175c1.108,-0.002 2.112,-0.451 2.838,-1.177c0.725,-0.725 1.176,-1.73 1.176,-2.836c-0,-1.064 -0.423,-2.085 -1.176,-2.837Z" style="fill:#808080;"/></g></g><clipPath id="_clip8"><rect id="screwdriver-svgrepo-com.svg" x="1194.76" y="346.233" width="208.066" height="196.97"/></clipPath><g clip-path="url(#_clip8)"><g><g><g><path d="M1398.46,358.096l-8.004,-7.574c-2.877,-2.727 -6.704,-4.227 -10.774,-4.227c-4.074,-0 -7.904,1.5 -10.782,4.227l-60.313,57.093c-0.052,0.049 -0.072,0.121 -0.121,0.177c-0.208,0.223 -0.381,0.466 -0.52,0.732c-0.055,0.111 -0.104,0.22 -0.146,0.338c-0.1,0.273 -0.156,0.551 -0.18,0.843c-0.003,0.079 -0.048,0.151 -0.048,0.23c-0,0.03 0.02,0.056 0.02,0.086c0,0.042 -0.014,0.078 -0.014,0.121c0.157,2.337 0.479,7.197 -1.473,9.045c-1.955,1.847 -7.089,1.549 -9.561,1.401c-0.035,-0.003 -0.069,0.01 -0.107,0.01c-0.122,-0.003 -0.236,0.016 -0.357,0.026c-0.302,0.019 -0.59,0.066 -0.874,0.161c-0.118,0.039 -0.226,0.082 -0.336,0.131c-0.291,0.131 -0.555,0.299 -0.797,0.502c-0.059,0.049 -0.135,0.066 -0.191,0.122l-9.804,9.277c-1.356,1.283 -1.356,3.361 -0,4.64l4.871,4.614l-76.544,72.463l14.706,13.921l76.547,-72.462l4.871,4.611c0.676,0.64 1.563,0.962 2.451,0.962c0.887,-0 1.774,-0.322 2.45,-0.962l9.804,-9.277c0.052,-0.053 0.07,-0.118 0.118,-0.171c0.215,-0.233 0.392,-0.479 0.53,-0.754c0.056,-0.115 0.108,-0.227 0.149,-0.345c0.094,-0.262 0.146,-0.532 0.167,-0.81c0.01,-0.112 0.035,-0.217 0.031,-0.328c0,-0.04 0.014,-0.079 0.014,-0.119c-0.156,-2.336 -0.478,-7.2 1.474,-9.047c1.955,-1.851 7.089,-1.543 9.557,-1.399c0.038,0.003 0.073,-0.009 0.111,-0.009c0.035,-0 0.07,0.019 0.104,0.019c0.101,0 0.198,-0.046 0.299,-0.056c0.263,-0.023 0.52,-0.062 0.769,-0.141c0.152,-0.046 0.298,-0.105 0.447,-0.174c0.25,-0.118 0.475,-0.266 0.694,-0.436c0.076,-0.062 0.17,-0.086 0.243,-0.155l60.519,-57.29c5.828,-5.52 5.828,-14.499 0,-20.016Zm-87.48,93.547l-19.549,-18.506l4.898,-4.634l19.549,18.503l-4.898,4.637Zm9.834,-18.532c-1.823,1.726 -2.766,3.961 -3.227,6.229l-13.156,-12.454c2.392,-0.44 4.757,-1.329 6.576,-3.059c1.824,-1.723 2.767,-3.961 3.228,-6.226l13.156,12.455c-2.392,0.44 -4.753,1.329 -6.577,3.055Zm63.603,-64.868l-48.533,45.945c-0.676,0.641 -1.563,0.962 -2.451,0.962c-0.888,-0 -1.775,-0.322 -2.451,-0.962c-1.355,-1.283 -1.355,-3.357 0,-4.64l48.533,-45.945c1.356,-1.283 3.546,-1.283 4.902,-0c1.355,1.283 1.355,3.357 -0,4.64Z" style="fill:#808080;fill-rule:nonzero;"/><path d="M1201.97,522.351c-0.209,0.194 -0.389,0.41 -0.538,0.65l-5.55,8.821c-1.858,2.947 -1.363,6.701 1.199,9.127c1.529,1.444 3.55,2.192 5.589,2.192c1.403,-0 2.818,-0.351 4.09,-1.08l9.249,-5.29c0.236,-0.134 0.455,-0.295 0.649,-0.479l5.543,-5.201l-14.706,-13.925l-5.525,5.185Z" style="fill:#808080;fill-rule:nonzero;"/></g></g></g></g><clipPath id="_clip9"><rect id="vecteezy_isolated-vga-card-computer-component-outline-eps-10-graphic_7968959.svg" x="2208.07" y="650.976" width="146.373" height="124.453"/></clipPath><g clip-path="url(#_clip9)"><path d="M2352.59,729.665c-1.406,-0 -2.544,-1.139 -2.544,-2.544l-0,-54.213c-0,-2.211 -1.798,-4.011 -4.012,-4.011l-108.978,-0c-0.952,-0 -1.841,0.321 -2.569,0.929c-1.083,0.9 -2.685,0.75 -3.582,-0.324c-0.901,-1.079 -0.755,-2.683 0.323,-3.583c1.632,-1.36 3.701,-2.109 5.828,-2.109l108.978,-0c5.018,-0 9.099,4.081 9.099,9.098l0,54.213c0,1.405 -1.138,2.544 -2.543,2.544Zm-6.556,18.081l-108.978,0c-5.018,0 -9.099,-4.081 -9.099,-9.098l0,-58.767c0,-1.405 1.138,-2.544 2.543,-2.544c1.407,0 2.544,1.139 2.544,2.544l0,58.767c0,2.211 1.799,4.011 4.012,4.011l108.978,0c1.941,-0.001 3.6,-1.382 3.947,-3.285c0.254,-1.383 1.585,-2.285 2.956,-2.046c1.384,0.252 2.3,1.576 2.047,2.958c-0.785,4.32 -4.55,7.459 -8.95,7.46" style="fill:#8c8c8c;fill-rule:nonzero;stroke:#8c8c8c;stroke-width:0.06px;stroke-linejoin:round;stroke-miterlimit:2;"/><path d="M2334.78,752.833l7.63,-0l0,-5.087l-7.63,0l-0,5.087Zm12.718,5.087l-17.805,0l0,-15.261l17.805,0l-0,15.261" style="fill:#8c8c8c;fill-rule:nonzero;stroke:#8c8c8c;stroke-width:0.06px;stroke-linejoin:round;stroke-miterlimit:2;"/><path d="M2322.07,752.833l7.63,-0l0,-5.087l-7.63,0l-0,5.087Zm12.717,5.087l-17.805,0l0,-15.261l17.805,0l-0,15.261" style="fill:#8c8c8c;fill-rule:nonzero;stroke:#8c8c8c;stroke-width:0.06px;stroke-linejoin:round;stroke-miterlimit:2;"/><path d="M2309.35,752.833l7.63,-0l0,-5.087l-7.63,0l-0,5.087Zm12.718,5.087l-17.805,0l-0,-15.261l17.805,0l-0,15.261" style="fill:#8c8c8c;fill-rule:nonzero;stroke:#8c8c8c;stroke-width:0.06px;stroke-linejoin:round;stroke-miterlimit:2;"/><path d="M2296.63,752.833l7.631,-0l-0,-5.087l-7.631,0l0,5.087Zm12.718,5.087l-17.805,0l-0,-15.261l17.805,0l-0,15.261" style="fill:#8c8c8c;fill-rule:nonzero;stroke:#8c8c8c;stroke-width:0.06px;stroke-linejoin:round;stroke-miterlimit:2;"/><path d="M2283.91,752.833l7.631,-0l-0,-5.087l-7.631,0l0,5.087Zm12.718,5.087l-17.804,0l-0,-15.261l17.804,0l0,15.261" style="fill:#8c8c8c;fill-rule:nonzero;stroke:#8c8c8c;stroke-width:0.06px;stroke-linejoin:round;stroke-miterlimit:2;"/><path d="M2250.85,752.833l7.63,-0l0,-5.087l-7.63,0l-0,5.087Zm12.718,5.087l-17.805,0l-0,-15.261l17.805,0l-0,15.261" style="fill:#8c8c8c;fill-rule:nonzero;stroke:#8c8c8c;stroke-width:0.06px;stroke-linejoin:round;stroke-miterlimit:2;"/><path d="M2238.13,752.833l7.631,-0l-0,-5.087l-7.631,0l0,5.087Zm12.718,5.087l-17.805,0l0,-15.261l17.805,0l-0,15.261" style="fill:#8c8c8c;fill-rule:nonzero;stroke:#8c8c8c;stroke-width:0.06px;stroke-linejoin:round;stroke-miterlimit:2;"/><path d="M2248.79,719.767c-1.67,0 -3.028,1.359 -3.028,3.03l-0,4.115c-0,1.671 1.358,3.029 3.028,3.029l19.379,0c1.669,0 3.028,-1.358 3.028,-3.029l0,-4.115c0,-1.671 -1.359,-3.03 -3.028,-3.03l-19.379,0Zm19.379,15.262l-19.379,-0c-4.474,-0 -8.115,-3.642 -8.115,-8.117l-0,-4.115c-0,-4.475 3.641,-8.117 8.115,-8.117l19.379,0c4.473,0 8.115,3.642 8.115,8.117l-0,4.115c-0,4.475 -3.642,8.117 -8.115,8.117" style="fill:#8c8c8c;fill-rule:nonzero;stroke:#8c8c8c;stroke-width:0.06px;stroke-linejoin:round;stroke-miterlimit:2;"/><path d="M2248.3,681.615c-1.403,-0 -2.543,1.141 -2.543,2.543l-0,20.348c-0,1.402 1.14,2.544 2.543,2.544l20.348,-0c1.404,-0 2.544,-1.142 2.544,-2.544l0,-20.348c0,-1.402 -1.14,-2.543 -2.544,-2.543l-20.348,-0Zm20.348,30.522l-20.348,-0c-4.208,-0 -7.63,-3.423 -7.63,-7.631l-0,-20.348c-0,-4.207 3.422,-7.63 7.63,-7.63l20.348,-0c4.208,-0 7.631,3.423 7.631,7.63l-0,20.348c-0,4.208 -3.423,7.631 -7.631,7.631" style="fill:#8c8c8c;fill-rule:nonzero;stroke:#8c8c8c;stroke-width:0.06px;stroke-linejoin:round;stroke-miterlimit:2;"/><path d="M2313.16,676.528c-16.128,-0 -29.251,13.121 -29.251,29.25c0,16.129 13.123,29.251 29.251,29.251c16.128,-0 29.25,-13.122 29.25,-29.251c0,-16.129 -13.122,-29.25 -29.25,-29.25Zm-0,63.588c-18.935,-0 -34.337,-15.404 -34.337,-34.338c-0,-18.933 15.402,-34.338 34.337,-34.338c18.935,0 34.338,15.405 34.338,34.338c-0,18.934 -15.403,34.338 -34.338,34.338" style="fill:#8c8c8c;fill-rule:nonzero;stroke:#8c8c8c;stroke-width:0.06px;stroke-linejoin:round;stroke-miterlimit:2;"/><path d="M2295.59,695.912c-0.097,0 -0.191,0.006 -0.278,0.017c-1.016,0.126 -1.925,0.9 -2.315,1.971c-0.119,0.327 -0.266,0.692 -0.422,1.085c-0.321,0.793 -1.294,3.208 -0.991,3.828c0.425,0.506 2.471,0.893 3.455,1.08c0.526,0.099 1.021,0.194 1.448,0.298c1.729,0.419 3.296,0.761 4.769,1.04c0.017,-0.367 0.05,-0.735 0.099,-1.105l0.003,-0.003c0.069,-0.517 0.226,-1.031 0.393,-1.537c0.005,-0.016 0.009,-0.032 0.017,-0.048c-0.181,-0.18 -0.368,-0.355 -0.554,-0.531c-0.517,-0.489 -1.103,-1.041 -1.632,-1.722c-0.522,-0.668 -0.946,-1.38 -1.369,-2.096c-0.223,-0.384 -0.447,-0.769 -0.7,-1.142c-0.613,-0.907 -1.342,-1.135 -1.923,-1.135Zm12.082,15.432l-3.882,-0.541c-2.581,-0.359 -5.284,-0.889 -8.5,-1.669c-0.353,-0.084 -0.763,-0.162 -1.197,-0.244c-2.149,-0.406 -4.824,-0.911 -6.424,-2.831c-2.315,-2.769 -0.748,-6.655 0.187,-8.976c0.134,-0.334 0.26,-0.644 0.362,-0.922c1.053,-2.894 3.532,-4.919 6.47,-5.28c2.778,-0.355 5.406,0.899 7.04,3.318c0.315,0.465 0.596,0.941 0.874,1.415c0.308,0.526 0.612,1.055 0.994,1.547c0.33,0.424 0.725,0.783 1.11,1.148c0.497,0.469 0.989,0.943 1.423,1.464l1.006,1.001l-0.141,1.733c-0.085,0.628 -0.241,1.154 -0.415,1.678c-0.069,0.21 -0.151,0.416 -0.181,0.629c-0.129,0.942 -0.065,1.898 0.186,2.764l1.088,3.766" style="fill:#8c8c8c;fill-rule:nonzero;stroke:#8c8c8c;stroke-width:0.06px;stroke-linejoin:round;stroke-miterlimit:2;"/><path d="M2309.96,717.249c-0.087,0.103 -0.171,0.198 -0.253,0.283c-0.914,0.931 -1.925,1.785 -3.006,2.53c-0.409,0.283 -0.824,0.538 -1.234,0.788c-1.178,0.718 -1.804,1.128 -2.072,1.856c-0.303,0.821 -0.159,1.282 -0.027,1.557c0.377,0.782 1.47,1.532 2.924,2.007c0.335,0.111 0.698,0.242 1.075,0.383c0.71,0.262 2.377,0.879 2.839,0.697c0.589,-1.09 0.88,-2.512 1.16,-3.888c0.114,-0.556 0.226,-1.101 0.348,-1.614c0.323,-1.346 0.621,-2.744 0.889,-4.177c-0.889,-0.042 -1.778,-0.183 -2.643,-0.422Zm0.102,15.18c-1.736,0 -3.437,-0.628 -4.456,-1.005c-0.318,-0.116 -0.619,-0.228 -0.899,-0.32c-2.819,-0.924 -4.921,-2.566 -5.917,-4.624c-0.819,-1.691 -0.877,-3.603 -0.169,-5.53c0.892,-2.425 2.723,-3.542 4.193,-4.441c0.333,-0.203 0.671,-0.408 1.001,-0.635c0.81,-0.56 1.57,-1.201 2.258,-1.904l0.167,-0.217c0.332,-0.441 0.787,-1.045 1.502,-1.448c1.433,-0.811 2.604,-0.321 3.045,-0.139l0.234,0.09c1.291,0.426 2.69,0.457 3.934,0.09l3.835,-1.127l-0.603,3.951c-0.415,2.728 -0.929,5.374 -1.525,7.864c-0.112,0.459 -0.209,0.946 -0.31,1.445c-0.338,1.654 -0.721,3.529 -1.586,5.138c-1.164,2.175 -2.953,2.812 -4.704,2.812" style="fill:#8c8c8c;fill-rule:nonzero;stroke:#8c8c8c;stroke-width:0.06px;stroke-linejoin:round;stroke-miterlimit:2;"/><path d="M2313.71,693.886c0.896,0.04 1.788,0.18 2.65,0.423c0.087,-0.105 0.171,-0.2 0.254,-0.285c0.904,-0.929 1.915,-1.785 3,-2.531c0.407,-0.281 0.825,-0.539 1.237,-0.791c1.172,-0.717 1.799,-1.125 2.064,-1.849l0,-0.001c0.303,-0.825 0.159,-1.288 0.025,-1.565c-0.377,-0.781 -1.465,-1.529 -2.906,-2c-0.338,-0.11 -0.701,-0.243 -1.081,-0.384c-0.713,-0.263 -2.399,-0.881 -2.849,-0.697c-0.59,1.091 -0.881,2.517 -1.159,3.897c-0.115,0.552 -0.224,1.093 -0.345,1.602c-0.324,1.36 -0.622,2.758 -0.89,4.181Zm-6.19,6.424l0.604,-3.926c0.412,-2.689 0.926,-5.333 1.528,-7.858c0.109,-0.457 0.205,-0.941 0.307,-1.437c0.336,-1.658 0.718,-3.538 1.585,-5.151c2.317,-4.33 7.116,-2.565 9.168,-1.807c0.318,0.117 0.621,0.228 0.902,0.32c2.809,0.918 4.906,2.557 5.904,4.616c0.822,1.696 0.882,3.611 0.172,5.541c-0.89,2.419 -2.716,3.537 -4.184,4.434c-0.335,0.205 -0.673,0.41 -1.006,0.639c-0.809,0.559 -1.567,1.197 -2.245,1.898l-0.174,0.224c-0.33,0.439 -0.78,1.041 -1.493,1.446c-1.445,0.816 -2.605,0.328 -3.045,0.144l-0.266,-0.098c-1.259,-0.416 -2.653,-0.447 -3.939,-0.079l-3.818,1.094" style="fill:#8c8c8c;fill-rule:nonzero;stroke:#8c8c8c;stroke-width:0.06px;stroke-linejoin:round;stroke-miterlimit:2;"/><path d="M2324.64,708.973c0.611,0.576 1.185,1.186 1.709,1.816c0.554,0.672 1.055,1.426 1.552,2.179c1.66,2.522 2.181,2.918 3.482,2.672c0.904,-0.173 1.508,-0.705 2.313,-3.131c0.117,-0.351 0.261,-0.73 0.412,-1.124c0.236,-0.615 0.86,-2.249 0.656,-2.599l2.193,-1.287l-2.195,1.284c-0.331,-0.495 -2.487,-0.907 -3.299,-1.062c-0.495,-0.096 -0.954,-0.186 -1.351,-0.282c-1.689,-0.418 -3.381,-0.788 -5.057,-1.107c-0.04,0.898 -0.177,1.786 -0.415,2.641Zm6.137,11.818c-3.82,0.001 -5.78,-2.979 -7.126,-5.029c-0.392,-0.595 -0.782,-1.196 -1.222,-1.726c-0.472,-0.57 -1.001,-1.119 -1.577,-1.633c-0.308,-0.21 -0.828,-0.579 -1.183,-1.223c-0.815,-1.441 -0.322,-2.571 -0.111,-3.053c0.506,-1.471 0.531,-2.876 0.166,-4.189l-1.053,-3.792l3.89,0.596c2.878,0.44 5.827,1.031 8.768,1.757c0.318,0.078 0.693,0.148 1.093,0.225c2.23,0.428 5.283,1.012 6.731,3.492c1.44,2.459 0.395,5.184 -0.295,6.988c-0.122,0.318 -0.239,0.622 -0.333,0.904c-0.614,1.853 -1.89,5.706 -6.183,6.528c-0.554,0.106 -1.075,0.155 -1.565,0.155" style="fill:#8c8c8c;fill-rule:nonzero;stroke:#8c8c8c;stroke-width:0.06px;stroke-linejoin:round;stroke-miterlimit:2;"/><path d="M2313.16,704.86c-0.502,0 -0.909,0.408 -0.909,0.908c0,0.502 0.407,0.909 0.909,0.909c0.502,0 0.909,-0.407 0.909,-0.909c0,-0.5 -0.407,-0.908 -0.909,-0.908Zm-0,6.904c-3.306,0 -5.996,-2.69 -5.996,-5.996c-0,-3.306 2.69,-5.995 5.996,-5.995c3.306,0 5.996,2.689 5.996,5.995c0,3.306 -2.69,5.996 -5.996,5.996" style="fill:#8c8c8c;fill-rule:nonzero;stroke:#8c8c8c;stroke-width:0.06px;stroke-linejoin:round;stroke-miterlimit:2;"/><path d="M2222.87,775.725c-1.406,0 -2.544,-1.139 -2.544,-2.544l0,-117.002l-10.173,0c-1.407,0 -2.544,-1.139 -2.544,-2.543c-0,-1.404 1.137,-2.543 2.544,-2.543l15.26,-0l0,122.088c0,1.405 -1.137,2.544 -2.543,2.544" style="fill:#8c8c8c;fill-rule:nonzero;stroke:#8c8c8c;stroke-width:0.06px;stroke-linejoin:round;stroke-miterlimit:2;"/><path d="M2215.24,694.333l5.086,-0l0,-17.805l-5.086,-0l-0,17.805Zm10.173,5.086l-15.26,0l-0,-27.979l15.26,0l0,27.979" style="fill:#8c8c8c;fill-rule:nonzero;stroke:#8c8c8c;stroke-width:0.06px;stroke-linejoin:round;stroke-miterlimit:2;"/><path d="M2215.24,735.029l5.086,-0l0,-17.805l-5.086,0l-0,17.805Zm10.173,5.087l-15.26,-0l-0,-27.979l15.26,-0l0,27.979" style="fill:#8c8c8c;fill-rule:nonzero;stroke:#8c8c8c;stroke-width:0.06px;stroke-linejoin:round;stroke-miterlimit:2;"/></g></svg>